<svg xmlns="http://www.w3.org/2000/svg" viewBox="0 0 1200 480" fill="none">
  <!-- Background -->
  <rect width="1200" height="480" fill="#ffffff"/>

  <!-- Title -->
  <text x="600" y="170" font-family="ui-monospace, 'SF Mono', 'Cascadia Mono', 'Fira Code', Menlo, Monaco, monospace" font-size="120" font-weight="700" fill="#111111" text-anchor="middle" letter-spacing="-5">soulforge</text>

  <!-- Tagline -->
  <text x="600" y="230" font-family="ui-monospace, 'SF Mono', 'Cascadia Mono', 'Fira Code', Menlo, Monaco, monospace" font-size="22" fill="#888888" text-anchor="middle" letter-spacing="6">CLONE ANYONE INTO AN AI AGENT</text>

  <!-- Command line -->
  <text x="600" y="310" font-family="ui-monospace, 'SF Mono', 'Cascadia Mono', 'Fira Code', Menlo, Monaco, monospace" font-size="18" text-anchor="middle">
    <tspan fill="#bbbbbb">$ </tspan>
    <tspan fill="#555555">soulforge elon-musk --data ./interviews/</tspan>
  </text>

  <!-- Lobster icon + Built for OpenClaw -->
  <g transform="translate(600, 410)">
    <g transform="translate(-80, -12) scale(0.6)" fill="#cc4444">
      <ellipse cx="16" cy="18" rx="6" ry="8"/>
      <path d="M10,10 Q4,4 2,8 Q0,12 4,13 Q6,11 10,12Z"/>
      <path d="M22,10 Q28,4 30,8 Q32,12 28,13 Q26,11 22,12Z"/>
      <line x1="12" y1="11" x2="8" y2="4" stroke="#cc4444" stroke-width="1.2" stroke-linecap="round"/>
      <line x1="20" y1="11" x2="24" y2="4" stroke="#cc4444" stroke-width="1.2" stroke-linecap="round"/>
      <path d="M13,26 Q16,32 19,26" fill="none" stroke="#cc4444" stroke-width="1.5" stroke-linecap="round"/>
    </g>
    <text x="0" y="-2" font-family="ui-monospace, 'SF Mono', 'Cascadia Mono', 'Fira Code', Menlo, Monaco, monospace" font-size="14" fill="#aaaaaa" text-anchor="middle">Built for OpenClaw</text>
  </g>
</svg>
